<?xml version="1.0" ?>
<svg xmlns="http://www.w3.org/2000/svg" xmlns:ev="http://www.w3.org/2001/xml-events" xmlns:xlink="http://www.w3.org/1999/xlink" baseProfile="full" height="600px" version="1.1" viewBox="84.11182809305811 95.14810456128257 640.6325865185468 1373.0189467350292" width="280px">
	<defs/>
	<path d="M 670.88202,1166.6423 A 203.89551,186.63016 0.0 1,1 263.091,1166.6423 A 203.89551,186.63016 0.0 1,1 670.88202,1166.6423" id="path175" style="fill:url(#radialGradient1399);stroke:none;stroke-width:1pt;stroke-linecap:butt;stroke-linejoin:miter" transform="matrix(1.4177,0,0,0.414745,-38.7944,222.194)"/>
	<path d="M 223.627,632.24 C 201.239,600.017 196.873,495.256 249.114,430.81 C 275.0,399.892 281.604,378.345 283.645,349.417 C 285.034,316.438 260.32,217.975 353.528,210.473 C 447.934,202.941 442.864,296.133 442.321,345.448 C 441.87,387.088 472.895,410.689 494.117,443.143 C 533.396,502.773 530.074,605.443 486.718,661.015 C 431.801,730.583 384.765,700.413 353.528,702.945 C 295.035,706.147 293.101,737.336 223.627,632.24" id="path106" style="fill:#000000;stroke:none;stroke-width:1.25;" transform="matrix(1.25,0,0,1.25,185.454,-167.505)"/>
	<path d="M 246.571,470.864 C 234.332,483.36 202.175,539.956 251.44,576.224 C 268.809,588.857 235.063,635.719 219.435,612.532 C 191.865,570.914 210.604,505.591 227.75,482.344 C 239.402,465.857 256.98,459.668 246.571,470.864" id="path113" style="fill:url(#linearGradient1401);stroke:none;stroke-width:0.99464899;" transform="matrix(-1.67739,-2.24516e-2,-2.11236e-2,1.4709,1173.58,-293.017)"/>
	<path d="M 256.513,459.837 C 236.598,477.554 200.337,539.928 253.225,580.443 C 270.595,593.075 237.832,632.906 219.435,612.532 C 155.472,541.712 221.104,460.278 243.697,432.282 C 263.889,407.935 281.775,438.034 256.513,459.837" id="path111" style="fill:#000000;stroke:#000000;stroke-width:0.97729802;" transform="matrix(-1.67755,0,0,1.52374,1174.62,-318.082)"/>
	<path d="M 399.56879,258.15753 A 58.37323,46.863022 0.0 1,1 282.82233,258.15753 A 58.37323,46.863022 0.0 1,1 399.56879,258.15753" id="path114" style="fill:url(#linearGradient1403);stroke:none;stroke-width:1.26498997;" transform="matrix(1.26626,-7.13667e-2,-4.59795e-2,1.19574,202.143,-125.761)"/>
	<path d="M 328.86324,320.64151 A 18.087479999999996,27.1311964999987 0.0 1,1 292.68828,320.64151 A 18.087479999999996,27.1311964999987 0.0 1,1 328.86324,320.64151" id="path115" style="fill:url(#linearGradient1405);stroke:none;stroke-width:1.17873001;" transform="matrix(1.30445,-7.55326e-2,7.71251e-2,1.34257,144.757,-177.617)"/>
	<path d="M 328.86324,320.64151 A 18.087479999999996,27.1311964999987 0.0 1,1 292.68828,320.64151 A 18.087479999999996,27.1311964999987 0.0 1,1 328.86324,320.64151" id="path116" style="fill:url(#linearGradient1407);stroke:none;stroke-width:0.93138498;" transform="matrix(-1.81082,4.95107e-2,3.17324e-2,1.55333,1207.46,-284.777)"/>
	<path d="M 328.86324,320.64151 A 18.087479999999996,27.1311964999987 0.0 1,1 292.68828,320.64151 A 18.087479999999996,27.1311964999987 0.0 1,1 328.86324,320.64151" id="path117" style="fill:#000000;stroke:none;stroke-width:1.86495996;" transform="matrix(-0.823196,-1.76123e-3,-1.82321e-2,0.852662,913.674,-37.9902)"/>
	<path d="M 328.86324,320.64151 A 18.087479999999996,27.1311964999987 0.0 1,1 292.68828,320.64151 A 18.087479999999996,27.1311964999987 0.0 1,1 328.86324,320.64151" id="path118" style="fill:#000000;stroke:none;stroke-width:2.39814997;" transform="matrix(0.59438,-7.22959e-2,6.88176e-2,0.705838,367.448,32.4186)"/>
	<path d="M 328.86324,320.64151 A 18.087479999999996,27.1311964999987 0.0 1,1 292.68828,320.64151 A 18.087479999999996,27.1311964999987 0.0 1,1 328.86324,320.64151" id="path121" style="fill:url(#linearGradient1409);stroke:none;stroke-width:3.1916101;" transform="matrix(-0.480323,-3.6454e-2,-4.67935e-2,0.475606,813.496,87.0124)"/>
	<path d="M 328.86324,320.64151 A 18.087479999999996,27.1311964999987 0.0 1,1 292.68828,320.64151 A 18.087479999999996,27.1311964999987 0.0 1,1 328.86324,320.64151" id="path122" style="fill:url(#linearGradient1411);stroke:none;stroke-width:4.12025976;" transform="matrix(0.35691,-4.08211e-2,4.13232e-2,0.398544,449.334,114.991)"/>
	<path d="M 258.702,495.425 C 271.538,466.322 298.816,415.199 299.397,375.667 C 299.397,344.225 393.576,336.716 401.134,368.109 C 408.692,399.502 427.875,446.592 440.084,469.265 C 452.292,491.937 487.893,563.96 449.968,626.811 C 415.811,682.455 312.243,726.477 256.958,619.254 C 238.355,582.047 241.673,535.939 258.702,495.425" id="path128" style="fill:url(#linearGradient1413);stroke:none;stroke-width:1.25;" transform="matrix(1.25,0,0,1.25,185.454,-168.23)"/>
	<path d="M 242.905,473.815 C 231.642,492.782 207.405,543.124 255.042,575.862 C 306.353,610.682 301.515,672.924 239.435,637.817 C 182.658,606.028 216.59,500.039 234.925,475.551 C 247.032,458.337 264.822,437.52 242.905,473.815" id="path112" style="fill:url(#linearGradient1415);stroke:none;stroke-width:1.15804005;" transform="matrix(1.38936,-0.111074,0.102211,1.30214,108.413,-165.938)"/>
	<path d="M 256.513,449.72 C 239.048,478.228 197.136,545.533 253.225,580.443 C 328.794,626.798 307.398,673.154 238.426,631.417 C 141.317,573.153 226.601,455.801 265.557,411.079 C 310.001,360.879 274.111,420.166 256.513,449.72" id="path109" style="fill:#000000;stroke:#000000;stroke-width:1.25;" transform="matrix(1.25,0,0,1.25,185.454,-167.505)"/>
	<path d="M 421.481,504.727 C 421.481,537.139 392.209,579.243 341.953,578.865 C 290.125,579.32 268.004,537.139 268.004,504.727 C 268.004,472.315 302.383,446.01 344.743,446.01 C 387.102,446.01 421.481,472.315 421.481,504.727" id="path125" style="font-size:12px;fill:url(#linearGradient1417);stroke:none;stroke-width:1.23705006;stroke-dasharray:none" transform="matrix(1.30209,0,0,1.22525,170.042,-153.557)"/>
	<path d="M 398.227,412.292 C 397.615,450.864 375.047,459.963 346.487,459.963 C 317.926,459.963 297.195,454.269 294.746,412.292 C 294.746,385.978 317.926,370.75 346.487,370.75 C 375.047,370.75 398.227,385.978 398.227,412.292" id="path127" style="font-size:12px;fill:url(#linearGradient1419);stroke:none;stroke-width:1.38846004;stroke-dasharray:none" transform="matrix(1.1868,0,0,1.06708,210.623,-100.078)"/>
	<path d="M 234.285,456.475 C 252.001,429.479 289.3,388.111 241.262,462.288 C 202.311,523.331 226.859,562.561 239.518,573.327 C 276.045,605.889 274.484,627.676 245.913,610.533 C 184.288,573.907 197.078,512.285 234.285,456.475" id="path129" style="fill:url(#linearGradient1421);stroke:none;stroke-width:1.25;" transform="matrix(1.25,0,0,1.25,185.454,-167.505)"/>
	<path d="M 490.662,467.52 C 475.343,435.819 426.528,355.618 492.988,448.917 C 553.449,533.214 511.01,591.93 503.452,597.744 C 495.895,603.557 470.315,615.184 477.873,594.837 C 485.43,574.49 523.107,535.864 490.662,467.52" id="path131" style="fill:url(#linearGradient1423);stroke:none;stroke-width:1.25;" transform="matrix(1.25,0,0,1.25,185.454,-167.505)"/>
	<path d="M 220.915,716.921 C 180.473,695.505 121.663,721.045 143.013,662.855 C 147.289,649.617 136.638,629.847 143.594,616.929 C 151.733,601.231 169.174,604.72 179.639,594.255 C 189.957,583.364 196.498,564.606 215.683,567.513 C 234.867,570.42 247.628,593.974 261.027,622.742 C 270.91,643.38 305.968,672.406 303.677,695.5 C 300.981,731.0 260.65,737.69 220.915,716.921" id="path132" style="fill:url(#linearGradient1425);stroke:#e68c3f;stroke-width:6.25;" transform="matrix(1.25,0,0,1.25,185.454,-167.505)"/>
	<path d="M 415.072,495.764 C 412.065,520.67 379.259,572.391 345.554,577.298 C 311.294,582.634 279.122,543.238 271.407,506.184 C 261.518,464.978 293.994,448.584 343.345,449.557 C 396.646,451.211 417.466,463.448 415.072,495.764" id="path177" style="font-size:12px;fill:url(#linearGradient1427);stroke:none;stroke-width:2.85509992;stroke-dasharray:none" transform="matrix(0.598206,0.268584,-0.239623,0.617213,700.568,140.464)"/>
	<path d="M 220.274,718.402 C 178.947,694.812 120.38,724.007 143.013,662.855 C 147.749,649.787 136.417,629.303 143.373,616.385 C 151.512,600.687 169.174,604.72 179.639,594.255 C 189.957,583.364 198.466,566.387 217.651,569.294 C 236.835,572.201 247.628,593.974 261.027,622.742 C 270.91,643.38 304.442,671.713 302.151,694.807 C 299.455,730.307 259.427,740.278 220.274,718.402" id="path133" style="fill:url(#linearGradient1429);stroke:#e68c3f;stroke-width:6.25067997;" transform="matrix(-1.1685,0.423145,0.475283,1.16478,728.343,-213.821)"/>
	<path d="M 216.482,675.68 C 129.951,618.177 169.174,604.72 179.639,594.255 C 189.957,583.364 198.466,566.387 217.651,569.294 C 236.835,572.201 247.628,593.974 261.027,622.742 C 270.91,643.38 304.087,671.66 302.151,694.807 C 299.535,721.917 253.961,700.294 216.482,675.68" id="path134" style="fill:url(#linearGradient1431);stroke:none;stroke-width:1.52532005;" transform="matrix(-0.945096,0.343745,0.424076,0.956058,714.328,-64.342)"/>
	<path d="M 216.506,677.071 C 129.975,619.568 169.709,603.501 182.56,595.791 C 197.959,585.849 197.718,564.96 216.903,567.867 C 236.087,570.774 247.628,593.974 261.027,622.742 C 270.91,643.38 304.087,671.66 302.151,694.807 C 299.535,721.917 253.985,701.685 216.506,677.071" id="path135" style="fill:url(#linearGradient1433);stroke:none;stroke-width:1.52532005;" transform="matrix(1.00431,-5.2286e-2,-1.74e-2,1.04575,244.191,-28.4653)"/>
	<path d="M 415.072,495.764 C 412.065,520.67 379.259,572.391 345.554,577.298 C 311.294,582.634 279.122,543.238 271.407,506.184 C 261.518,464.978 293.994,448.584 343.345,449.557 C 396.646,451.211 417.466,463.448 415.072,495.764" id="path136" style="font-size:12px;fill:#000000;stroke:none;stroke-width:2.85509992;" transform="matrix(0.515584,0.215259,-0.206526,0.49467,713.3,222.559)"/>
	<path d="M 415.072,495.764 C 412.065,520.67 379.259,572.391 345.554,577.298 C 311.294,582.634 279.122,543.238 271.407,506.184 C 261.518,464.978 293.994,448.584 343.345,449.557 C 396.646,451.211 417.466,463.448 415.072,495.764" id="path137" style="font-size:12px;fill:url(#linearGradient1435);stroke:none;stroke-width:2.85509992;" transform="matrix(0.351231,0.149463,-0.128856,0.343469,724.522,318.291)"/>
	<path d="M 309.954,338.729 C 317.101,331.959 334.765,311.663 367.915,332.974 C 374.077,336.984 379.077,337.351 390.936,342.429 C 414.662,352.178 403.318,375.688 378.192,383.537 C 367.434,387.026 357.656,400.093 338.063,398.976 C 321.329,397.999 316.944,387.102 306.665,381.07 C 288.396,370.759 285.7,356.816 295.565,349.417 C 305.431,342.018 309.29,339.358 309.954,338.729" id="path119" style="fill:url(#linearGradient1437);stroke:#e68c3f;stroke-width:3.75;" transform="matrix(1.25,0,0,1.25,185.454,-167.505)"/>
	<path d="M 391.251,357.645 C 381.368,358.226 359.858,379.736 337.185,379.736 C 314.512,379.736 301.141,358.807 297.653,358.807" id="path120" style="fill:none;stroke:#e68c3f;stroke-width:2.5;" transform="matrix(1.25,0,0,1.25,185.454,-167.505)"/>
	<path d="M 309.954,338.729 C 317.101,331.959 339.645,313.381 369.542,332.401 C 375.841,336.167 382.346,340.266 392.02,345.865 C 411.182,357.613 401.691,374.543 378.734,385.255 C 368.316,389.75 351.141,399.67 338.063,398.976 C 323.53,397.568 314.128,387.577 304.496,381.07 C 286.826,368.767 287.899,358.833 296.107,350.562 C 302.312,344.883 309.29,339.358 309.954,338.729" id="path123" style="fill:url(#linearGradient1439);stroke:none;" transform="matrix(0.627885,0,0,0.595666,392.366,51.8173)"/>
</svg>
